<svg xmlns="http://www.w3.org/2000/svg" viewBox="0 0 512 512">
  <rect width="512" height="512" rx="112" fill="#f7f7f2" />
  <rect x="88" y="88" width="104" height="104" rx="12" fill="#111111" />
  <rect x="112" y="112" width="56" height="56" rx="6" fill="#f7f7f2" />
  <rect x="128" y="128" width="24" height="24" rx="3" fill="#111111" />
  <rect x="320" y="88" width="104" height="104" rx="12" fill="#111111" />
  <rect x="344" y="112" width="56" height="56" rx="6" fill="#f7f7f2" />
  <rect x="360" y="128" width="24" height="24" rx="3" fill="#111111" />
  <rect x="88" y="320" width="104" height="104" rx="12" fill="#111111" />
  <rect x="112" y="344" width="56" height="56" rx="6" fill="#f7f7f2" />
  <rect x="128" y="360" width="24" height="24" rx="3" fill="#111111" />

  <rect x="224" y="88" width="40" height="40" rx="8" fill="#111111" />
  <rect x="272" y="136" width="32" height="32" rx="7" fill="#111111" />
  <rect x="224" y="176" width="80" height="32" rx="7" fill="#111111" />
  <rect x="336" y="224" width="88" height="32" rx="7" fill="#111111" />
  <rect x="88" y="224" width="56" height="32" rx="7" fill="#111111" />
  <rect x="176" y="224" width="32" height="80" rx="7" fill="#111111" />
  <rect x="232" y="232" width="40" height="40" rx="8" fill="#111111" />
  <rect x="280" y="280" width="32" height="32" rx="7" fill="#111111" />
  <rect x="336" y="288" width="32" height="80" rx="7" fill="#111111" />
  <rect x="392" y="304" width="32" height="32" rx="7" fill="#111111" />
  <rect x="224" y="344" width="80" height="32" rx="7" fill="#111111" />
  <rect x="272" y="392" width="48" height="32" rx="7" fill="#111111" />
  <rect x="360" y="392" width="64" height="32" rx="7" fill="#111111" />
</svg>
